<svg width="664" height="78" viewBox="0 0 664 78" fill="none" xmlns="http://www.w3.org/2000/svg">
<path d="M27.9375 67.5938V76.0312H7.05469V67.5938H10.8984V46.9922H7.59375L6.58594 53.4141H0V38.7422H35.0859V53.4141H28.5234L27.5156 46.9922H24.0938V67.5938H27.9375ZM55.6406 76.0312H39.1172V68.9766H42.0938V47.3672H39.1172V40.9922L53.3672 39.4453V54.5859C53.9766 53.4609 55.0391 52.4922 56.5547 51.6797C58.0859 50.8516 59.7812 50.4375 61.6406 50.4375C64.3594 50.4375 66.4141 51.2422 67.8047 52.8516C69.1953 54.4453 69.8906 56.6875 69.8906 59.5781V68.9766H72.8672V76.0312H58.5938V60.7266C58.5938 59.7891 58.3203 59.0156 57.7734 58.4062C57.2422 57.7969 56.625 57.4922 55.9219 57.4922C55.125 57.4922 54.5 57.7656 54.0469 58.3125C53.5938 58.8594 53.3672 59.5938 53.3672 60.5156V68.9766H55.6406V76.0312ZM88.9688 76.4531C86.0625 76.4531 83.5391 75.9141 81.3984 74.8359C79.2422 73.7734 77.5859 72.25 76.4297 70.2656C75.2891 68.2812 74.7188 65.9609 74.7188 63.3047C74.7188 60.6797 75.2812 58.3984 76.4062 56.4609C77.5156 54.5391 79.0859 53.0547 81.1172 52.0078C83.1484 50.9609 85.5312 50.4375 88.2656 50.4375C90.7812 50.4375 93 50.9297 94.9219 51.9141C96.8438 52.9141 98.3281 54.3281 99.375 56.1562C100.438 57.9844 100.969 60.1172 100.969 62.5547C100.969 63.3984 100.844 64.1953 100.594 64.9453H85.9922C85.9922 66.4141 86.5469 67.5938 87.6562 68.4844C88.7656 69.3594 90.1016 69.7969 91.6641 69.7969C92.8516 69.7969 94.1562 69.5938 95.5781 69.1875C97 68.7656 98.4297 68.1172 99.8672 67.2422L100.266 67.3828V73.6875C98.6562 74.6094 97 75.3047 95.2969 75.7734C93.6094 76.2266 91.5 76.4531 88.9688 76.4531ZM85.9922 60.1406V60.8203H91.9922V60.3281C91.9922 59.2188 91.7344 58.2656 91.2188 57.4688C90.7188 56.6562 89.9688 56.25 88.9688 56.25C88.1406 56.25 87.4375 56.6641 86.8594 57.4922C86.2812 58.3047 85.9922 59.1875 85.9922 60.1406ZM144.773 77.3906C137.367 77.3906 130.758 75.7031 124.945 72.3281C119.102 68.9844 114.523 64.375 111.211 58.5C107.93 52.5938 106.289 45.9531 106.289 38.5781C106.289 30.9531 107.867 24.2031 111.023 18.3281C114.18 12.5156 118.633 8.01562 124.383 4.82812C130.164 1.60938 136.961 0 144.773 0C152.617 0 159.414 1.59375 165.164 4.78125C170.945 8 175.383 12.5312 178.477 18.375C181.602 24.1875 183.164 30.9219 183.164 38.5781C183.164 46.2656 181.383 53.1562 177.82 59.25L178.008 59.1562H185.602V76.0312H155.742C152.055 76.9375 148.398 77.3906 144.773 77.3906ZM144.773 61.1719C146.961 61.1719 148.82 60.1406 150.352 58.0781C151.883 55.9844 153.039 53.2031 153.82 49.7344C154.633 46.2344 155.039 42.3906 155.039 38.2031C155.039 34.2344 154.648 30.6562 153.867 27.4688C153.117 24.25 151.977 21.7031 150.445 19.8281C148.945 17.9219 147.055 16.9688 144.773 16.9688C142.492 16.9688 140.57 17.9219 139.008 19.8281C137.477 21.7031 136.32 24.25 135.539 27.4688C134.789 30.6562 134.414 34.2344 134.414 38.2031C134.414 42.3906 134.82 46.2344 135.633 49.7344C136.445 53.2031 137.617 55.9844 139.148 58.0781C140.711 60.1406 142.586 61.1719 144.773 61.1719ZM213.305 76.875C203.242 76.875 198.211 70.5781 198.211 57.9844V40.3125H192.164V27.6562L220.664 24.8438V57.9844C220.664 59.2031 221.117 60.3281 222.023 61.3594C222.93 62.3594 223.992 62.8594 225.211 62.8594C226.617 62.8594 227.711 62.3906 228.492 61.4531C229.305 60.4844 229.711 59.2969 229.711 57.8906V40.3125H225.211V27.6562L252.164 24.8438V61.9219H258.211V76.0312H229.711V68.7188C228.055 71.2812 225.836 73.2812 223.055 74.7188C220.305 76.1562 217.055 76.875 213.305 76.875ZM292.758 76.875C286.945 76.875 281.898 75.7969 277.617 73.6406C273.305 71.5156 269.992 68.4688 267.68 64.5C265.398 60.5312 264.258 55.8906 264.258 50.5781C264.258 45.3281 265.383 40.7656 267.633 36.8906C269.852 33.0469 272.992 30.0781 277.055 27.9844C281.117 25.8906 285.883 24.8438 291.352 24.8438C296.383 24.8438 300.82 25.8281 304.664 27.7969C308.508 29.7969 311.477 32.625 313.57 36.2812C315.695 39.9375 316.758 44.2031 316.758 49.0781C316.758 50.7656 316.508 52.3594 316.008 53.8594H286.805C286.805 56.7969 287.914 59.1562 290.133 60.9375C292.352 62.6875 295.023 63.5625 298.148 63.5625C300.523 63.5625 303.133 63.1562 305.977 62.3438C308.82 61.5 311.68 60.2031 314.555 58.4531L315.352 58.7344V71.3438C312.133 73.1875 308.82 74.5781 305.414 75.5156C302.039 76.4219 297.82 76.875 292.758 76.875ZM286.805 44.25V45.6094H298.805V44.625C298.805 42.4062 298.289 40.5 297.258 38.9062C296.258 37.2812 294.758 36.4688 292.758 36.4688C291.102 36.4688 289.695 37.2969 288.539 38.9531C287.383 40.5781 286.805 42.3438 286.805 44.25ZM351.352 76.875C344.945 76.875 339.273 75.1875 334.336 71.8125L332.789 76.0312H324.07V57.5156H334.523C334.93 59.8906 336.039 62.0156 337.852 63.8906C339.664 65.7656 341.758 66.7031 344.133 66.7031C345.039 66.7031 345.82 66.4531 346.477 65.9531C347.164 65.4531 347.508 64.625 347.508 63.4688C347.508 62.3125 346.852 61.2656 345.539 60.3281C344.195 59.3594 342.195 58.25 339.539 57C336.32 55.4062 333.695 53.9531 331.664 52.6406C329.602 51.3281 327.82 49.6094 326.32 47.4844C324.82 45.3281 324.07 42.75 324.07 39.75C324.07 36.6562 325.086 33.9688 327.117 31.6875C329.148 29.4375 331.82 27.7344 335.133 26.5781C338.445 25.4219 342.055 24.8438 345.961 24.8438C351.055 24.8438 355.789 26.1875 360.164 28.875L361.336 25.8281H369.117V40.7812H360.07C359.289 38.75 358.164 37.1562 356.695 36C355.227 34.8438 353.508 34.2656 351.539 34.2656C349.227 34.2656 348.07 35 348.07 36.4688C348.102 37.4688 348.711 38.3281 349.898 39.0469C351.086 39.7344 353.008 40.6719 355.664 41.8594C357.32 42.5469 358.836 43.2344 360.211 43.9219C361.586 44.6094 362.82 45.2656 363.914 45.8906C366.102 47.1719 368.008 48.9844 369.633 51.3281C371.258 53.6406 372.07 56.5312 372.07 60C372.07 63.6875 371.117 66.7812 369.211 69.2812C367.305 71.8125 364.773 73.7188 361.617 75C358.461 76.25 355.039 76.875 351.352 76.875ZM403.758 76.875C391.727 76.875 385.711 70.6094 385.711 58.0781V39.5625H378.211V25.8281H385.711V15.0938L408.164 10.0781V25.8281H417.164V39.5625H408.164V56.4375C408.164 57.8438 408.695 59.0156 409.758 59.9531C410.82 60.8906 412.148 61.3594 413.742 61.3594C414.898 61.3594 416.039 61.2656 417.164 61.0781V74.1094C413.039 75.9531 408.57 76.875 403.758 76.875ZM442.805 76.0312H423.328V68.9766H427.078V57.7969H423.328V50.9297H427.078V48.6797C427.078 42.3672 429.859 39.2109 435.422 39.2109C436.641 39.2109 437.953 39.3281 439.359 39.5625C440.766 39.7812 441.914 40.0312 442.805 40.3125V47.2266C441.633 47.0391 440.82 46.9453 440.367 46.9453C438.992 46.9453 438.305 47.9844 438.305 50.0625V50.9297H442.805V57.7969H438.305V68.9766H442.805V76.0312ZM460.922 76.4531C458.078 76.4531 455.602 75.9297 453.492 74.8828C451.352 73.8516 449.688 72.3359 448.5 70.3359C447.312 68.3359 446.719 65.9609 446.719 63.2109C446.719 60.4766 447.312 58.1562 448.5 56.25C449.688 54.3281 451.352 52.8828 453.492 51.9141C455.633 50.9297 458.109 50.4375 460.922 50.4375C463.812 50.4375 466.32 50.9375 468.445 51.9375C470.586 52.9375 472.242 54.3906 473.414 56.2969C474.586 58.1875 475.172 60.4922 475.172 63.2109C475.172 65.9609 474.586 68.3359 473.414 70.3359C472.227 72.3359 470.555 73.8594 468.398 74.9062C466.258 75.9375 463.766 76.4531 460.922 76.4531ZM460.922 69.6094C461.953 69.6094 462.719 69.1016 463.219 68.0859C463.703 67.1016 463.945 65.4766 463.945 63.2109C463.945 61.1328 463.703 59.6328 463.219 58.7109C462.75 57.7734 461.984 57.3047 460.922 57.3047C459.906 57.3047 459.156 57.7734 458.672 58.7109C458.188 59.6328 457.945 61.1328 457.945 63.2109C457.945 65.4297 458.195 67.0547 458.695 68.0859C459.195 69.1016 459.938 69.6094 460.922 69.6094ZM496.453 76.0312H478.453V68.9766H481.477V58.1719H478.453V51.8438L492.703 50.4375V54.5156C493.203 53.7344 493.938 53.0391 494.906 52.4297C495.875 51.8047 496.906 51.3203 498 50.9766C499.109 50.6172 500.102 50.4375 500.977 50.4375V60.375C499.148 59.7656 497.641 59.4609 496.453 59.4609C494.953 59.4609 493.953 59.8984 493.453 60.7734C492.953 61.6328 492.703 62.7656 492.703 64.1719V68.9766H496.453V76.0312ZM524.156 76.0312H504V67.6406H507.656V46.9922H504.094V38.6953H524.062C527.125 38.6953 529.836 39.0312 532.195 39.7031C534.57 40.3594 536.43 41.4688 537.773 43.0312C539.133 44.5938 539.812 46.7422 539.812 49.4766C539.812 54.2578 538.516 57.6953 535.922 59.7891C533.328 61.8828 529.438 62.9297 524.25 62.9297C522.922 62.9297 521.758 62.8516 520.758 62.6953V67.6406H524.156V76.0312ZM520.805 46.9922V55.2891H521.766C525.312 55.2891 527.086 53.7266 527.086 50.6016C527.086 49.4453 526.695 48.5547 525.914 47.9297C525.133 47.3047 524.086 46.9922 522.773 46.9922H520.805ZM561 76.0312H543V68.9766H546.023V58.1719H543V51.8438L557.25 50.4375V54.5156C557.75 53.7344 558.484 53.0391 559.453 52.4297C560.422 51.8047 561.453 51.3203 562.547 50.9766C563.656 50.6172 564.648 50.4375 565.523 50.4375V60.375C563.695 59.7656 562.188 59.4609 561 59.4609C559.5 59.4609 558.5 59.8984 558 60.7734C557.5 61.6328 557.25 62.7656 557.25 64.1719V68.9766H561V76.0312ZM582.609 76.4531C579.766 76.4531 577.289 75.9297 575.18 74.8828C573.039 73.8516 571.375 72.3359 570.188 70.3359C569 68.3359 568.406 65.9609 568.406 63.2109C568.406 60.4766 569 58.1562 570.188 56.25C571.375 54.3281 573.039 52.8828 575.18 51.9141C577.32 50.9297 579.797 50.4375 582.609 50.4375C585.5 50.4375 588.008 50.9375 590.133 51.9375C592.273 52.9375 593.93 54.3906 595.102 56.2969C596.273 58.1875 596.859 60.4922 596.859 63.2109C596.859 65.9609 596.273 68.3359 595.102 70.3359C593.914 72.3359 592.242 73.8594 590.086 74.9062C587.945 75.9375 585.453 76.4531 582.609 76.4531ZM582.609 69.6094C583.641 69.6094 584.406 69.1016 584.906 68.0859C585.391 67.1016 585.633 65.4766 585.633 63.2109C585.633 61.1328 585.391 59.6328 584.906 58.7109C584.438 57.7734 583.672 57.3047 582.609 57.3047C581.594 57.3047 580.844 57.7734 580.359 58.7109C579.875 59.6328 579.633 61.1328 579.633 63.2109C579.633 65.4297 579.883 67.0547 580.383 68.0859C580.883 69.1016 581.625 69.6094 582.609 69.6094ZM620.039 76.0312H600.562V68.9766H604.312V57.7969H600.562V50.9297H604.312V48.6797C604.312 42.3672 607.094 39.2109 612.656 39.2109C613.875 39.2109 615.188 39.3281 616.594 39.5625C618 39.7812 619.148 40.0312 620.039 40.3125V47.2266C618.867 47.0391 618.055 46.9453 617.602 46.9453C616.227 46.9453 615.539 47.9844 615.539 50.0625V50.9297H620.039V57.7969H615.539V68.9766H620.039V76.0312ZM632.859 48.4688C630.906 48.4688 629.297 48.0078 628.031 47.0859C626.766 46.1641 626.133 44.8359 626.133 43.1016C626.133 41.3672 626.766 40.0547 628.031 39.1641C629.297 38.2734 630.922 37.8281 632.906 37.8281C634.891 37.8281 636.5 38.2656 637.734 39.1406C638.984 40.0156 639.609 41.3359 639.609 43.1016C639.609 44.8359 638.969 46.1641 637.688 47.0859C636.422 48.0078 634.812 48.4688 632.859 48.4688ZM641.484 68.9766V76.0312H624.211V68.9766H627.234V58.1719H624.211V52.4062L638.461 50.9297V68.9766H641.484ZM656.531 76.4531C650.516 76.4531 647.508 73.3203 647.508 67.0547V57.7969H643.758V50.9297H647.508V45.5625L658.734 43.0547V50.9297H663.234V57.7969H658.734V66.2344C658.734 66.9375 659 67.5234 659.531 67.9922C660.062 68.4609 660.727 68.6953 661.523 68.6953C662.102 68.6953 662.672 68.6484 663.234 68.5547V75.0703C661.172 75.9922 658.938 76.4531 656.531 76.4531Z" fill="#CE2E0A"/>
</svg>
